<svg width="18" height="18" viewBox="0 0 18 18" fill="none" xmlns="http://www.w3.org/2000/svg">
<path d="M2.25 6H10.5C10.945 6 11.38 5.86804 11.75 5.62081C12.12 5.37357 12.4084 5.02217 12.5787 4.61104C12.749 4.19991 12.7936 3.74751 12.7068 3.31105C12.62 2.87459 12.4057 2.47368 12.091 2.15901C11.7763 1.84434 11.3754 1.63005 10.939 1.54323C10.5025 1.45642 10.0501 1.50097 9.63896 1.67127C9.22783 1.84157 8.87643 2.12996 8.62919 2.49997C8.38196 2.86998 8.25 3.30499 8.25 3.75M2.25 9H14.25C14.695 9 15.13 9.13196 15.5 9.37919C15.87 9.62643 16.1584 9.97783 16.3287 10.389C16.499 10.8001 16.5436 11.2525 16.4568 11.689C16.37 12.1254 16.1557 12.5263 15.841 12.841C15.5263 13.1557 15.1254 13.37 14.689 13.4568C14.2525 13.5436 13.8001 13.499 13.389 13.3287C12.9778 13.1584 12.6264 12.87 12.3792 12.5C12.132 12.13 12 11.695 12 11.25M2.25 12H8.25" stroke="#2F80ED" stroke-width="1.5" stroke-linecap="round"/>
</svg>
